<!--?xml version="1.0" standalone="no"?-->
              <svg id="sw-js-blob-svg" viewBox="0 0 100 100" xmlns="http://www.w3.org/2000/svg" version="1.1">
                    <defs> 
                        <linearGradient id="sw-gradient" x1="0" x2="1" y1="1" y2="0">
                            <stop id="stop1" stop-color="rgba(248, 117, 55, 1)" offset="0%"></stop>
                            <stop id="stop2" stop-color="rgba(251, 168, 31, 1)" offset="100%"></stop>
                        </linearGradient>
                    </defs>
                <path fill="url(#sw-gradient)" d="M9.1,-16.8C15.1,-12.2,25.7,-16.6,26.1,-15.3C26.6,-14,16.9,-7,14.8,-1.2C12.7,4.6,18.2,9.1,18.5,11.6C18.7,14.2,13.7,14.6,9.8,20.3C5.8,25.9,2.9,36.8,0.6,35.8C-1.7,34.7,-3.4,21.8,-7,15.9C-10.5,10,-15.9,11.1,-16.5,9.6C-17.1,8.2,-13,4.1,-12.7,0.1C-12.5,-3.8,-16.1,-7.6,-15.6,-9.3C-15.1,-11.1,-10.6,-10.8,-7.3,-16.9C-4,-23.1,-2,-35.7,-0.2,-35.2C1.5,-34.8,3,-21.3,9.1,-16.8Z" width="100%" height="100%" transform="translate(50 50)" stroke-width="0" style="transition: all 0.3s ease 0s;"></path>
              </svg>